<svg xmlns="http://www.w3.org/2000/svg" xmlns:xlink="http://www.w3.org/1999/xlink" version="1.1" id="Layer_1" x="0px" y="0px" width="100px" height="100px" viewBox="0 0 100 100" enable-background="new 0 0 100 100" xml:space="preserve">
<path d="M43.888,42.526c-7.68-11.586-12.82-20.871-16.285-18.555c-0.164,0.108-0.472,0.629-0.472,0.629  c-0.07,0.096-1.408,1.9-3.095,2.86c-0.275,0.157-0.611,0.299-1.028,0.435c-0.972,0.318-2.229,0.548-3.445,0.771  c-1.113,0.204-2.162,0.397-2.886,0.633l-0.215,0.075c-1.644,0.625-3.836,2.563-3.857,2.582c0,0-0.478,0.375-0.601,0.534  c-2.643,3.454,2.437,11.955,13.197,24.665C45.197,81.943,91.828,98.241,93.084,93.18C93.291,90.629,57.326,65.615,43.888,42.526z   M41.754,44.736c-0.127,0.084-0.271,0.125-0.414,0.125c-0.243,0-0.481-0.118-0.625-0.336c-1.154-1.741-2.25-3.43-3.292-5.036  c-3.059-4.712-6.865-10.573-8.743-11.978c-0.332-0.248-0.399-0.718-0.151-1.05c0.249-0.332,0.719-0.398,1.05-0.151  c2.092,1.565,5.816,7.3,9.101,12.361c1.041,1.604,2.135,3.289,3.286,5.026C42.194,44.042,42.1,44.508,41.754,44.736z M53.749,60.425  c-0.144,0.13-0.323,0.193-0.503,0.193c-0.205,0-0.409-0.083-0.557-0.247c-3.483-3.86-7.175-9.087-9.649-12.683  c-0.235-0.341-0.149-0.809,0.192-1.043c0.342-0.234,0.81-0.148,1.043,0.192c2.45,3.561,6.104,8.733,9.527,12.527  C54.08,59.673,54.056,60.147,53.749,60.425z M11.361,13.899c-0.185-0.43-0.359-0.874-0.559-1.291  c-0.159-0.46-0.332-0.904-0.491-1.336c-0.278-0.907-0.569-1.799-0.708-2.659C9.535,7.767,9.386,7.004,9.429,6.439  C9.415,5.876,9.412,5.532,9.412,5.532c0.06-0.168,0.136-0.323,0.23-0.469c0.155-0.245,0.569-0.045,0.942,0.34  c0.501,0.516,1.241,1.096,2.342,1.621c0.484,0.231,0.734,0.696,0.629,1.113c-0.054,0.222-0.102,0.48-0.133,0.771  c-0.013,0.537-0.036,1.197,0.123,1.89c0.156,0.693,0.329,1.426,0.667,2.124c0.645,1.397,3.338,8.178,4.109,9.033  c0.124,0.138,0.242,0.259,0.354,0.368c0.202,0.197,0.975,0.085,1.764-0.042c2.041-0.331,3.426,0.64,6.447,1.446  c0,0-1.633,2.209-3.206,3.105c-1.573,0.896-5.687,1.187-7.474,1.866c-1.788,0.679-4.081,2.718-4.081,2.718  c0.272-2.437,0.871-4.426,2.593-6.069c0.578-0.551,1.04-1.07,0.934-1.266c-0.061-0.114-0.127-0.231-0.197-0.351  c-0.343-0.572-0.706-1.242-1.086-1.979C13.936,21.045,11.732,14.734,11.361,13.899z"/>
</svg>