<?xml version="1.0" encoding="utf-8"?>
<!-- Generator: Adobe Illustrator 16.0.0, SVG Export Plug-In . SVG Version: 6.00 Build 0)  -->
<!DOCTYPE svg PUBLIC "-//W3C//DTD SVG 1.1//EN" "http://www.w3.org/Graphics/SVG/1.1/DTD/svg11.dtd">
<svg version="1.1" id="Layer_1" xmlns="http://www.w3.org/2000/svg" xmlns:xlink="http://www.w3.org/1999/xlink" x="0px" y="0px"
	 width="39px" height="34.75px" viewBox="30.5 31.75 39 34.75" enable-background="new 30.5 31.75 39 34.75" xml:space="preserve">
<path d="M54.063,43.055c-0.013-0.006-1.418-0.504-1.441-1.854c0.004-0.625,0.148-1.107,0.348-1.516
	c0.297-0.105,0.605-0.254,0.879-0.523c0.18-0.176,0.363-0.455,0.504-0.809c0.695-0.324,1.367-0.383,1.517-0.389
	c0.37-0.012,0.664-0.326,0.647-0.697c-0.008-0.365-0.309-0.652-0.672-0.652c-0.004,0-0.012,0-0.02,0
	c-0.406,0.014-0.91,0.096-1.43,0.264c-0.125-0.152-0.293-0.264-0.504-0.264c-0.371,0-0.677,0.303-0.677,0.676
	c0,0.068-0.021,0.115-0.026,0.18c-0.414,0.271-0.789,0.627-1.105,1.07c-0.082,0.01-0.145,0.012-0.152,0.012
	c-0.309,0.006-0.652,0.094-0.996,0.229c-0.289-0.111-0.608-0.188-0.992-0.188c-0.223,0-0.445-0.041-0.664-0.098
	c0.184-0.291,0.398-0.49,0.664-0.49c1.988,0,2.621-1.656,2.676-2.531c0.022-0.373-0.259-0.691-0.63-0.715
	c-0.352-0.066-0.694,0.258-0.715,0.629c-0.012,0.131-0.116,1.266-1.332,1.266c-0.883,0-1.465,0.531-1.859,1.221
	c-0.793-0.613-1.375-1.539-1.375-2.443c0-0.371-0.301-0.676-0.676-0.676c-0.371,0-0.672,0.305-0.672,0.676
	c0,0.518,0.129,1.029,0.336,1.514c-0.516-0.195-1.02-0.301-1.422-0.328c-0.367-0.055-0.691,0.26-0.715,0.631
	c-0.027,0.373,0.258,0.691,0.629,0.715c0.125,0.01,3.074,0.232,3.074,3.262c0,1.305-1.391,1.809-1.449,1.83
	c-3.586,1.227-8.355,3.578-8.355,9.816c0,5.033,3.129,8.799,8.391,10.078c0.312,0.061,1.191,0.234,1.68,0.305
	c0.434,0.686,1.355,1.922,2.414,1.922c1.055,0,1.98-1.232,2.411-1.922c0.543-0.078,1.387-0.248,1.703-0.311
	c5.241-1.273,8.366-5.039,8.366-10.072C62.421,46.633,57.65,44.281,54.063,43.055z M52.128,43.34c0.228,0.236,0.465,0.434,0.69,0.58
	c-0.25,0.152-0.672,0.316-1.366,0.422c-0.027-0.008-0.052-0.014-0.078-0.021C51.663,44.037,51.93,43.725,52.128,43.34z
	 M47.769,43.324c0.184,0.334,0.418,0.619,0.672,0.877c-0.023,0.047-0.043,0.09-0.066,0.135c-0.664-0.105-1.07-0.266-1.312-0.414
	C47.288,43.771,47.538,43.568,47.769,43.324z M38.808,52.871c0-3.615,1.75-6.08,5.609-7.82c-2.391,1.912-4.008,5.156-4.008,8.418
	c0,2.582,1.031,5.107,2.598,6.924C40.304,58.809,38.808,56.188,38.808,52.871z M41.757,53.469c0-3.279,1.941-6.654,4.559-8.072
	c-1.852,2.096-2.953,6.479-2.953,8.678c0,1.771,0.73,4.666,1.984,6.655C43.265,59.289,41.757,56.426,41.757,53.469z M46.312,54.813
	c0,0.055,0.227,4.055,1.164,6.379c-1.5-1.185-2.766-4.933-2.766-7.117c0-2.271,1.312-6.621,2.887-8.043
	C46.776,48.549,46.312,53.396,46.312,54.813z M49.265,61.549c-0.035-0.016-0.078-0.037-0.102-0.049
	c-0.633-0.432-1.5-4.637-1.5-6.688c0-1.804,0.664-7.525,1.492-9.06c0.035,0.004,0.074,0.006,0.109,0.008L49.265,61.549
	L49.265,61.549z M49.019,42.703c-0.238-0.4-0.406-0.869-0.406-1.473c0.016-0.385,0.078-0.939,0.199-1.48
	c0.262,0.08,0.523,0.129,0.789,0.154c-0.199,0.355-0.336,0.775-0.336,1.303C49.265,41.697,49.159,42.213,49.019,42.703z
	 M49.94,63.826c-0.125,0-0.344-0.172-0.582-0.416c0.16,0.006,0.34,0.039,0.492,0.039c0.23,0,0.441-0.008,0.645-0.018
	C50.269,63.662,50.062,63.826,49.94,63.826z M50.144,43.613c0.258-0.738,0.473-1.584,0.473-2.406c0-0.383,0.129-0.625,0.289-0.816
	c0.273,0.33,0.352,0.734,0.363,0.834C51.27,42.395,50.77,43.139,50.144,43.613z M50.729,61.49c-0.051,0.016-0.074,0.066-0.112,0.092
	v-15.82c0.03-0.002,0.062-0.004,0.094-0.004c0.789,1.35,1.508,7.158,1.508,9.055C52.218,56.844,51.361,61.006,50.729,61.49z
	 M52.413,61.166c0.93-2.328,1.155-6.303,1.155-6.354c0-1.08-0.444-6.197-1.315-8.813c1.608,1.404,2.914,5.771,2.914,8.074
	C55.167,56.24,53.921,59.943,52.413,61.166z M54.516,60.744c1.27-1.994,2.004-4.896,2.004-6.67c0-2.164-1.095-6.551-2.935-8.66
	c2.612,1.422,4.535,4.76,4.535,8.055C58.12,56.436,56.604,59.307,54.516,60.744z M56.861,60.404
	c1.574-1.816,2.609-4.348,2.609-6.937c0-3.236-1.652-6.518-4.039-8.432c3.883,1.74,5.641,4.211,5.641,7.834
	C61.072,56.195,59.568,58.822,56.861,60.404z"/>
</svg>
