<svg xmlns="http://www.w3.org/2000/svg" xmlns:xlink="http://www.w3.org/1999/xlink" version="1.1" id="Layer_1" x="0px" y="0px" width="100px" height="100px" viewBox="0 0 100 100" enable-background="new 0 0 100 100" xml:space="preserve">
<path d="M62.307,52.64c-0.773-2.896-1.227-5.958-1.227-11.929c0-5.131,1.715-12.357,1.715-12.357h-0.09h-0.091v-0.009  c0.03,0.002,0.06,0.009,0.091,0.009c0.947,0,1.715-0.768,1.715-1.715c0-0.945-0.768-1.713-1.715-1.713  c-0.031,0-0.061,0.007-0.091,0.009v-0.009H62.2c2.493-0.887,4.28-3.26,4.28-6.058c0-2.729-1.708-5.058-4.114-5.989l0.001-0.005  c0,0-0.076-0.026-0.194-0.065c-0.119-0.042-0.238-0.081-0.36-0.116c-1.369-0.428-5.135-1.494-9.537-1.796v-1.1h-0.475  c0,0-0.422-0.321-0.422-0.884c0-1.031,0.914-1.389,0.914-1.389l-0.006-0.003c0.518-0.252,0.842-0.584,0.842-0.951  c0-0.785-1.441-1.422-3.219-1.422s-3.219,0.637-3.219,1.422c0,0.367,0.324,0.699,0.841,0.951l-0.006,0.003  c0,0,0.915,0.358,0.915,1.389c0,0.562-0.422,0.884-0.422,0.884H47.65v1.092c-5.889,0.37-10.068,2.004-10.068,2.004l0.001,0.004  c-2.379,0.944-4.063,3.26-4.063,5.97c0,2.798,1.788,5.171,4.28,6.058h-0.594c-0.947,0-1.715,0.768-1.715,1.713  c0,0.947,0.768,1.715,1.715,1.715v0.001c0.003,0.011,1.714,7.229,1.714,12.356c0,5.971-0.453,9.032-1.226,11.929  c-0.905,3.392-2.908,8.821-2.908,13.738c0,5.833,2.464,10.548,2.464,10.548h0c-0.947,0-1.715,0.768-1.715,1.713  c0,0.947,0.768,1.715,1.715,1.715H36.5c-0.947,0-1.714,0.768-1.714,1.714c0,0.802,0.553,1.47,1.296,1.657  c-0.729,0.089-1.296,0.703-1.296,1.456c0,0.013,0.003,0.024,0.004,0.037h-0.004v8.156c0,0.002,0,0.003,0,0.005  c0,0.813,0.66,1.474,1.475,1.474h27.48c0.814,0,1.475-0.66,1.475-1.474c0-0.003-0.001-0.007-0.001-0.01v-8.151h-0.003  c0-0.013,0.004-0.024,0.004-0.037c0-0.753-0.567-1.367-1.298-1.456c0.744-0.188,1.297-0.855,1.297-1.657  c0-0.946-0.768-1.714-1.715-1.714H62.75h-0.092v-0.01c0.031,0.002,0.061,0.01,0.092,0.01c0.947,0,1.715-0.768,1.715-1.715  c0-0.945-0.768-1.713-1.715-1.713c-0.031,0-0.061,0.008-0.092,0.01v-0.01h0.092c0,0,2.465-4.715,2.465-10.548  C65.215,61.461,63.211,56.031,62.307,52.64z"/>
</svg>