<svg xmlns="http://www.w3.org/2000/svg" xmlns:xlink="http://www.w3.org/1999/xlink" version="1.1" id="Layer_1" x="0px" y="0px" width="100px" height="100px" viewBox="0 0 100 100" enable-background="new 0 0 100 100" xml:space="preserve">
<path d="M79.616,40.07c-17.144-6.598-42.09-6.598-59.233,0C0.931,47.554-5.084,62.095,11.612,72.987  c19.67,12.831,57.105,12.831,76.775,0C105.083,62.095,99.067,47.554,79.616,40.07z M79.023,68.454  c-15.173,9.197-42.875,9.197-58.048,0c-13.406-8.125-9.745-19.462,5.31-25.528c13.608-5.482,33.821-5.483,47.428,0  C88.77,48.992,92.428,60.329,79.023,68.454z"/>
<path d="M76.6,68.361c12.476-7.421,9.35-17.896-4.53-23.56c-12.633-5.156-31.507-5.156-44.141,0  C14.049,50.465,10.924,60.94,23.4,68.361C37.374,76.671,62.624,76.671,76.6,68.361z"/>
</svg>