<svg xmlns="http://www.w3.org/2000/svg" xmlns:xlink="http://www.w3.org/1999/xlink" version="1.1" id="Layer_1" x="0px" y="0px" width="100px" height="100px" viewBox="0 0 100 100" enable-background="new 0 0 100 100" xml:space="preserve">
<path d="M15.914,55.823c-4.344,4.344-4.344,11.386,0,15.729l11.798,11.798c4.344,4.343,11.386,4.343,15.729,0L15.914,55.823z"/>
<path d="M31.016,35.309c-4.112,6.232-14.545,19.535-14.545,19.535l27.95,27.951c0,0,13.303-10.432,19.536-14.545  c7.458-4.922,35.309-21.059,35.309-21.059L52.074,0C52.074,0,35.938,27.85,31.016,35.309z M62.425,65.928  c-4.883,3.223-13.826,10.098-17.774,13.163L20.175,54.615c3.064-3.948,9.939-12.891,13.162-17.775  c3.977-6.026,14.948-24.796,19.326-32.318l42.08,42.08C87.221,50.979,68.451,61.951,62.425,65.928z"/>
<circle cx="13.946" cy="95.489" r="1.563"/>
<circle cx="20.432" cy="98.437" r="1.563"/>
<circle cx="8.05" cy="82.517" r="1.564"/>
<circle cx="12.766" cy="87.234" r="1.564"/>
<circle cx="4.512" cy="86.054" r="1.564"/>
<circle cx="9.229" cy="90.771" r="1.563"/>
<circle cx="17.483" cy="91.951" r="1.564"/>
<circle cx="1.563" cy="79.568" r="1.564"/>
<circle cx="11.587" cy="78.979" r="1.563"/>
<circle cx="16.304" cy="83.696" r="1.564"/>
<circle cx="21.021" cy="88.413" r="1.564"/>
<circle cx="23.969" cy="94.899" r="1.564"/>
<circle cx="5.101" cy="76.031" r="1.563"/>
<path d="M31.016,35.309c-4.112,6.232-14.545,19.535-14.545,19.535l27.95,27.951c0,0,13.303-10.432,19.536-14.545  c7.458-4.922,35.309-21.059,35.309-21.059L52.074,0C52.074,0,35.938,27.85,31.016,35.309z M62.425,65.928  c-4.883,3.223-13.826,10.098-17.774,13.163L20.175,54.615c3.064-3.948,9.939-12.891,13.162-17.775  c3.977-6.026,14.948-24.796,19.326-32.318l42.08,42.08C87.221,50.979,68.451,61.951,62.425,65.928z"/>
<path d="M23.825,56c0.021,0,0.042,0,0.064,0c9.903,0,32.308,5.966,36.695,9.107c-4.583,3.111-11.783,8.698-15.778,11.785L23.825,56z  "/>
<circle cx="27.67" cy="91.199" r="1.563"/>
<circle cx="8.801" cy="72.33" r="1.564"/>
</svg>