<?xml version="1.0" encoding="utf-8"?>
<!-- Generator: Adobe Illustrator 16.0.0, SVG Export Plug-In . SVG Version: 6.00 Build 0)  -->
<!DOCTYPE svg PUBLIC "-//W3C//DTD SVG 1.1//EN" "http://www.w3.org/Graphics/SVG/1.1/DTD/svg11.dtd">
<svg version="1.1" id="Layer_1" xmlns="http://www.w3.org/2000/svg" xmlns:xlink="http://www.w3.org/1999/xlink" x="0px" y="0px"
	 width="88.333px" height="38.667px" viewBox="3.5 29.169 88.333 38.667" enable-background="new 3.5 29.169 88.333 38.667"
	 xml:space="preserve">
<path d="M79.178,35.762h-1.943h-3.887c-0.021,0-0.033,0.021-0.056,0.022c-0.019,0.001-0.035-0.018-0.056-0.014
	c-0.112,0.019-11.659,1.9-25.054,1.9s-24.939-1.882-25.056-1.9c-0.02-0.004-0.035,0.015-0.055,0.014
	c-0.021-0.001-0.033-0.022-0.055-0.022h-3.887h-1.942c-0.374,0-0.676,0.302-0.676,0.675c0,16.368,13.023,27.802,31.67,27.802
	s31.67-11.435,31.67-27.802C79.854,36.063,79.55,35.762,79.178,35.762z M48.183,39.021c11.486,0,21.6-1.368,24.451-1.791
	c-0.403,12.066-9.896,19.827-24.451,19.827c-14.556,0-24.047-7.761-24.451-19.827C26.581,37.652,36.695,39.021,48.183,39.021z
	 M22.352,37.111c0.35,12.768,10.641,21.295,25.831,21.295c15.189,0,25.48-8.527,25.833-21.295h2.51
	c-0.351,14.278-11.635,23.831-28.342,23.831c-16.706,0-27.993-9.553-28.344-23.831H22.352z M48.183,62.889
	c-17.592,0-29.956-10.565-30.312-25.777h0.618c0.348,15.086,12.177,25.182,29.693,25.182c17.515,0,29.343-10.096,29.695-25.182
	h0.617C78.139,52.322,65.773,62.889,48.183,62.889z M35.361,45.331c0.307,0.306,0.714,0.474,1.146,0.474
	c0.436,0,0.843-0.169,1.145-0.474c0.309-0.306,0.479-0.713,0.479-1.148s-0.17-0.842-0.476-1.146l-0.881-0.886
	c-0.616-0.608-1.68-0.608-2.294,0.005c-0.63,0.635-0.629,1.663,0,2.292L35.361,45.331z M35.437,43.109
	c0.068-0.068,0.149-0.079,0.192-0.079c0.042,0,0.125,0.011,0.193,0.078l0.878,0.883c0.07,0.069,0.081,0.149,0.081,0.191
	s-0.011,0.123-0.083,0.194c-0.135,0.134-0.248,0.134-0.383,0l-0.879-0.883C35.331,43.388,35.331,43.214,35.437,43.109z M41.1,47.71
	c0.308,0.307,0.715,0.477,1.148,0.477s0.841-0.17,1.152-0.48c0.623-0.633,0.622-1.659-0.005-2.292l-0.88-0.876
	c-0.611-0.612-1.684-0.61-2.293-0.002c-0.308,0.307-0.479,0.714-0.479,1.148c0,0.436,0.171,0.843,0.478,1.147L41.1,47.71z
	 M41.176,45.493c0.069-0.068,0.15-0.079,0.193-0.079c0.042,0,0.123,0.011,0.193,0.08l0.878,0.876
	c0.105,0.106,0.104,0.28,0.001,0.386c-0.142,0.141-0.245,0.141-0.387,0l-0.88-0.879c-0.069-0.068-0.08-0.149-0.08-0.191
	S41.105,45.563,41.176,45.493z M53.135,48.187c0.434,0,0.844-0.171,1.143-0.476l0.882-0.879c0.633-0.633,0.633-1.661-0.002-2.296
	c-0.611-0.612-1.681-0.608-2.291,0.002l-0.88,0.878c-0.309,0.309-0.479,0.719-0.475,1.154c0,0.435,0.17,0.839,0.473,1.138
	C52.291,48.017,52.699,48.187,53.135,48.187z M52.941,46.371l0.877-0.878c0.07-0.068,0.149-0.079,0.193-0.079
	c0.043,0,0.122,0.011,0.192,0.079c0.09,0.091,0.09,0.294,0,0.384l-0.886,0.883c-0.139,0.142-0.235,0.141-0.381-0.008
	c-0.069-0.065-0.08-0.145-0.08-0.186C52.859,46.524,52.869,46.442,52.941,46.371z M47.722,45.981h0.01
	c0.893,0,1.618-0.727,1.618-1.618l0.003-1.24c0-0.896-0.729-1.624-1.624-1.624c-0.894,0-1.621,0.728-1.621,1.62l-0.003,1.243
	c0,0.431,0.167,0.838,0.473,1.145C46.884,45.812,47.289,45.981,47.722,45.981z M47.457,43.12c0-0.15,0.121-0.271,0.271-0.271
	c0.151,0,0.274,0.123,0.274,0.272L48,44.362c0,0.147-0.121,0.269-0.269,0.269H47.72c-0.125,0-0.267-0.143-0.267-0.268L47.457,43.12z
	 M58.564,45.804c0.436,0,0.842-0.169,1.145-0.475l0.881-0.881c0.631-0.63,0.631-1.658-0.002-2.295
	c-0.611-0.612-1.68-0.608-2.291,0.002l-0.875,0.878c-0.309,0.307-0.48,0.714-0.48,1.148c0,0.436,0.172,0.843,0.478,1.147
	C57.725,45.635,58.131,45.804,58.564,45.804z M58.373,43.989l0.879-0.88c0.068-0.068,0.148-0.079,0.191-0.079
	s0.125,0.011,0.188,0.078c0.109,0.106,0.109,0.28,0.005,0.386l-0.886,0.883c-0.131,0.134-0.237,0.137-0.381-0.003
	c-0.067-0.068-0.08-0.149-0.08-0.191S58.303,44.06,58.373,43.989z"/>
</svg>
